
<svg id="Layer_1" data-name="Layer 1" xmlns="http://www.w3.org/2000/svg" viewBox="220 35 255 130" >
<path fill="#1a1c73" d="M225.92,97.86c0,12.9-.07,15.47,5,28,6.94,17.29,24.61,29.68,43,33.23,10.79,2.08,36.22.85,49.68.85h51c.44-1.93,1.21-2.66,2.12-4.28,7-12.58,17.73-36.93,24.39-48.45,2.13-3.68,7.76-16.14,9.3-17.28.65,2.79,3,5.93,4.26,8.54,1.57,3.16,2.84,5.73,4.41,8.88l9,17.58c6,11.62,11.57,23.45,17.65,35h23.06c-.65-2.82-18.63-37.45-21.58-43.39-5.06-10.15-36.2-70.39-36.8-73-1.52,1.12-5.09,9.24-6.21,11.5-2.14,4.3-3.93,7.9-6.21,12-4.37,7.83-7.66,16.72-12.21,24.21-2.15,3.57-4,7.87-5.95,11.77-2.11,4.24-3.9,7.93-6,12.17l-9.17,17.9c-.73,1.47-2.1,5.59-3.76,5.59h-80c-7.79,0-19.79-5.79-24.12-11.26-6.24-7.88-10.22-14.62-10.22-26.21,0-9.61,3.89-17.12,9.1-23.88,4.58-5.93,13.59-10.87,21.23-12.19,5.92-1,45.92-.43,58-.41,8.65,0,6.87,3.47,6.87-19.72,0-1.14-.35-1.48-1.48-1.48h-57.4c-21.83,0-41.32,13-51,32-2.48,4.87-5.88,14.91-5.88,22.2Z"/>
<path class="animate-float" fill="#e21d23" d="M387.82,160l22.08-13.31c1.56.42,3.93,2.12,5.37,3,2.5,1.51,15,9.38,16.71,9.83-.77-3.31-21-39.44-21.59-41.9-1.44,1.06-2.13,3.28-2.94,4.93l-14.07,26.78c-1.08,1.92-1.75,3-2.78,5.1a49.84,49.84,0,0,0-2.78,5.59Z"/>
</svg>